<?xml version="1.0" standalone="no"?>
<!DOCTYPE svg PUBLIC "-//W3C//DTD SVG 20010904//EN"
 "http://www.w3.org/TR/2001/REC-SVG-20010904/DTD/svg10.dtd">
<svg version="1.0" xmlns="http://www.w3.org/2000/svg"
 width="1208.000000pt" height="677.000000pt" viewBox="0 0 1208.000000 677.000000"
 preserveAspectRatio="xMidYMid meet">

<g transform="translate(0.000000,677.000000) scale(0.100000,-0.100000)"
fill="#000000" stroke="none">
<path d="M0 3385 l0 -3385 698 0 697 0 -62 29 c-34 17 -99 54 -145 83 -45 29
-112 67 -148 83 -36 17 -66 35 -67 40 -1 14 167 57 202 51 17 -2 24 -2 18 1
-26 10 -12 24 25 22 20 -1 82 10 137 24 90 24 101 25 116 11 10 -9 24 -14 31
-11 8 3 4 8 -11 14 -23 9 -22 10 17 20 24 6 42 7 42 2 0 -15 27 -10 34 6 4 10
14 13 34 9 20 -4 31 -2 35 9 3 9 14 13 31 10 14 -3 35 2 48 11 23 16 88 22 88
8 0 -22 -154 -132 -187 -133 -20 -1 -23 -3 -8 -6 17 -5 13 -10 -25 -43 -32
-27 -41 -40 -30 -43 40 -12 160 -28 203 -27 34 1 47 -3 47 -13 0 -11 10 -12
55 -4 41 8 59 7 67 -1 18 -18 3 -27 -121 -66 -95 -31 -119 -35 -144 -27 -41
15 -47 13 -17 -4 l25 -14 -45 -20 -45 -20 920 0 c520 0 911 4 899 9 -12 5 -68
18 -125 30 -57 12 -106 24 -108 26 -4 4 35 58 83 115 17 20 40 48 51 62 22 29
40 36 31 12 -3 -9 0 -15 9 -15 8 0 20 -8 27 -18 24 -34 66 -38 375 -35 197 2
304 -1 308 -7 4 -6 11 -7 17 -4 6 4 5 10 -3 15 -12 8 128 16 156 9 47 -11 50
-11 37 -2 -9 6 4 8 40 5 30 -3 64 -13 78 -24 98 -73 102 -74 272 -74 87 0 158
-3 158 -7 0 -5 -1 -8 -3 -8 -1 0 -47 -20 -102 -45 l-100 -45 3733 0 3732 0 0
3385 0 3385 -6040 0 -6040 0 0 -3385z m773 3108 c-7 -2 -19 -2 -25 0 -7 3 -2
5 12 5 14 0 19 -2 13 -5z m87 -54 c0 -6 -4 -7 -10 -4 -5 3 -10 11 -10 16 0 6
5 7 10 4 6 -3 10 -11 10 -16z m810 -50 c0 -9 36 -54 80 -99 44 -46 78 -85 76
-88 -8 -7 -32 13 -95 81 -61 66 -95 123 -84 140 7 11 23 -13 23 -34z m-947
-29 c3 -11 1 -20 -4 -20 -5 0 -9 9 -9 20 0 11 2 20 4 20 2 0 6 -9 9 -20z m112
-24 c4 -18 2 -53 -4 -77 l-10 -44 5 51 c4 36 1 55 -9 65 -7 8 -12 20 -9 27 7
23 21 12 27 -22z m1335 10 c0 -28 -113 -146 -127 -132 -5 5 15 32 63 80 12 11
26 31 33 44 13 25 31 29 31 8z m-1408 -126 c-1 -7 3 -18 9 -26 7 -8 10 -17 7
-20 -3 -2 -13 10 -21 28 -9 18 -17 26 -17 18 0 -13 -1 -13 -10 0 -15 24 -12
30 13 21 12 -5 21 -14 19 -21z m45 -12 c-3 -8 -6 -5 -6 6 -1 11 2 17 5 13 3
-3 4 -12 1 -19z m10336 -95 c-7 -19 -73 -83 -86 -83 -17 0 6 46 36 72 36 31
60 36 50 11z m117 7 c12 -7 12 -10 1 -10 -9 0 -11 -8 -7 -25 5 -20 3 -25 -13
-25 -19 0 -46 52 -34 64 9 9 36 7 53 -4z m-10526 -47 c7 3 19 1 27 -4 10 -6 3
-9 -22 -9 -34 0 -36 1 -30 28 5 25 6 26 9 4 2 -14 9 -22 16 -19z m9353 5 c-3
-7 -5 -2 -5 12 0 14 2 19 5 13 2 -7 2 -19 0 -25z m-9262 12 c3 -5 1 -10 -4
-10 -6 0 -11 5 -11 10 0 6 2 10 4 10 3 0 8 -4 11 -10z m15 -41 c0 -4 -7 -6
-15 -3 -8 4 -15 10 -15 15 0 4 7 6 15 3 8 -4 15 -10 15 -15z m-130 -29 c0 -5
-5 -10 -11 -10 -5 0 -7 5 -4 10 3 6 8 10 11 10 2 0 4 -4 4 -10z m2122 -27
c-22 -40 -66 -67 -158 -99 -53 -18 -101 -31 -105 -28 -5 3 -9 17 -9 32 0 25 1
25 15 6 10 -13 13 -14 10 -3 -7 18 59 51 138 69 26 5 61 19 79 30 36 22 44 20
30 -7z m-2017 8 c-3 -5 0 -20 5 -33 7 -15 8 -32 2 -48 l-9 -24 -5 27 c-3 14
-1 24 3 21 12 -7 11 3 -1 27 -10 18 -6 39 6 39 3 0 3 -4 -1 -9z m9282 -38 c-3
-10 -5 -2 -5 17 0 19 2 27 5 18 2 -10 2 -26 0 -35z m-9387 -3 c0 -5 -2 -10 -4
-10 -3 0 -8 5 -11 10 -3 6 -1 10 4 10 6 0 11 -4 11 -10z m-9 -97 c-12 -20 -14
-14 -5 12 4 9 9 14 11 11 3 -2 0 -13 -6 -23z m129 23 c0 -3 -4 -8 -10 -11 -5
-3 -10 -1 -10 4 0 6 5 11 10 11 6 0 10 -2 10 -4z m-13 -48 c-3 -8 -6 -5 -6 6
-1 11 2 17 5 13 3 -3 4 -12 1 -19z m9290 -130 c-2 -24 -4 -5 -4 42 0 47 2 66
4 43 2 -24 2 -62 0 -85z m-9384 86 c4 -1 12 -2 17 -3 6 0 10 -9 10 -20 0 -10
7 -24 16 -31 24 -20 48 10 53 65 1 6 6 3 11 -5 16 -25 12 -127 -5 -134 -9 -3
-19 3 -25 14 -15 27 -27 25 -44 -7 -8 -16 -15 -22 -16 -14 0 11 -3 11 -15 1
-20 -16 -19 -30 3 -46 13 -11 14 -15 4 -22 -9 -6 -3 -9 18 -10 51 -1 48 -12
-3 -12 l-47 0 -1 43 c-4 166 -3 195 6 189 6 -4 13 -7 18 -8z m2217 -4 c0 -5
-4 -10 -10 -10 -5 0 -10 5 -10 10 0 6 5 10 10 10 6 0 10 -4 10 -10z m8350
-137 l8 -33 -59 0 c-46 0 -59 3 -59 15 0 8 5 15 10 15 6 0 10 6 8 13 -3 13 20
74 35 95 7 9 15 2 30 -30 10 -24 23 -58 27 -75z m-9104 18 c-3 -4 -6 -67 -7
-140 -1 -112 -3 -130 -15 -120 -16 13 -19 95 -4 104 6 3 10 14 10 23 -1 16 -2
16 -14 -1 -19 -25 -76 -13 -75 17 0 21 1 21 9 1 7 -15 9 -9 7 25 -1 34 2 45
13 45 9 0 14 9 13 23 -2 18 2 22 28 22 20 0 28 4 23 12 -4 7 -3 8 5 4 6 -4 9
-11 7 -15z m-1346 -71 c0 -22 -16 -35 -24 -21 -4 5 -2 12 4 16 16 10 2 25 -18
19 -14 -5 -14 -4 -3 4 19 14 41 4 41 -18z m5020 -4 c0 -3 -4 -8 -10 -11 -5 -3
-10 -1 -10 4 0 6 5 11 10 11 6 0 10 -2 10 -4z m-3677 -239 c2 -18 5 -425 6
-905 l2 -874 -38 26 c-47 32 -78 33 -106 2 -12 -12 -39 -26 -59 -30 -28 -5
-42 -15 -53 -36 -19 -37 -19 -70 0 -70 21 0 19 -13 -5 -35 -11 -10 -25 -36
-32 -57 -10 -35 -62 -88 -74 -76 -2 3 3 21 11 41 19 46 20 43 -16 56 -54 19
-65 14 -88 -34 -12 -25 -23 -45 -24 -45 -8 0 -8 431 -1 958 6 454 9 552 20
552 11 0 14 29 16 133 l2 132 6 -175 6 -175 2 252 c2 193 -1 252 -10 256 -7 3
-4 6 7 6 19 1 20 -5 19 -236 -1 -131 1 -219 3 -195 l4 42 100 0 c96 0 99 -1
100 -22 l2 -23 4 23 c2 12 11 22 19 22 11 0 14 15 14 60 0 53 2 60 20 60 11 0
20 7 20 15 0 10 11 15 33 16 17 0 26 3 20 6 -9 3 -13 34 -13 104 l0 99 -120 0
-120 0 0 -40 0 -40 -40 0 -40 0 0 40 0 40 40 0 c40 0 40 0 40 38 0 30 5 41 23
50 51 26 99 41 144 46 39 4 43 3 18 -4 -27 -8 -25 -9 14 -5 26 2 52 11 63 23
28 27 55 17 61 -21z m-358 -77 c8 -13 -15 -13 -35 0 -12 8 -11 10 7 10 12 0
25 -4 28 -10z m-99 -78 c-12 -11 -17 7 -9 34 l8 29 3 -28 c2 -16 1 -31 -2 -35z
m4281 12 c107 -51 260 -204 331 -330 81 -146 154 -316 141 -328 -9 -8 -10 -6
-6 7 5 12 2 17 -8 15 -11 -2 -30 29 -64 102 -90 194 -223 384 -320 456 -25 19
-82 52 -126 74 -65 32 -74 40 -51 40 16 0 62 -16 103 -36z m-4266 -42 c-15 -5
-14 -39 2 -46 10 -5 10 -7 0 -12 -8 -4 -13 -28 -13 -67 0 -44 -3 -58 -10 -47
-5 8 -9 54 -9 103 1 67 4 87 15 87 8 0 15 11 16 28 1 22 2 21 5 -8 3 -19 0
-36 -6 -38z m2625 -11 c101 -9 160 -28 171 -57 3 -9 -8 -29 -28 -50 -38 -39
-169 -128 -242 -164 -28 -14 -46 -29 -43 -36 7 -17 -5 -26 -19 -14 -8 7 -48
-3 -125 -30 -150 -54 -449 -143 -602 -180 -227 -54 -629 -92 -748 -70 -76 14
-93 25 -84 54 41 135 672 413 1149 505 248 48 379 58 571 42z m7022 -81 c3 -8
0 -10 -9 -6 -8 4 -6 1 4 -7 11 -9 14 -18 8 -21 -5 -4 -19 4 -30 16 -16 16 -18
24 -9 30 16 10 31 5 36 -12z m-8991 -122 c-3 -7 -5 -2 -5 12 0 14 2 19 5 13 2
-7 2 -19 0 -25z m1983 -268 c0 -25 -18 -36 -26 -16 -8 21 3 49 16 41 5 -3 10
-15 10 -25z m170 9 c0 -5 -7 -9 -15 -9 -15 0 -20 12 -9 23 8 8 24 -1 24 -14z
m-570 -26 c0 -20 -3 -24 -11 -16 -7 7 -9 19 -6 27 10 24 17 19 17 -11z m4393
-10 c-7 -2 -19 -2 -25 0 -7 3 -2 5 12 5 14 0 19 -2 13 -5z m-1673 -132 c0 -9
4 -21 9 -26 5 -6 14 -27 21 -47 9 -31 9 -40 -3 -52 -21 -21 -33 -8 -57 63 -20
60 -20 64 -3 76 21 16 33 11 33 -14z m-2343 -13 c-3 -8 -6 -5 -6 6 -1 11 2 17
5 13 3 -3 4 -12 1 -19z m2313 -136 c0 -8 -35 -33 -62 -44 -28 -11 -10 20 21
37 30 16 41 18 41 7z m-2600 -22 c0 -5 -2 -10 -4 -10 -3 0 -8 5 -11 10 -3 6
-1 10 4 10 6 0 11 -4 11 -10z m2906 -26 c19 -9 34 -20 34 -24 0 -5 2 -14 5
-22 4 -11 -15 -14 -97 -13 -87 0 -109 -3 -144 -22 -53 -28 -101 -83 -132 -151
-21 -48 -24 -64 -20 -140 5 -99 23 -142 86 -209 22 -24 36 -45 31 -48 -5 -3
-36 0 -70 7 -58 12 -63 15 -99 68 -46 67 -60 114 -60 198 0 103 50 223 122
289 70 66 266 104 344 67z m-6221 -23 c-3 -5 -1 -12 5 -16 6 -4 8 -10 5 -15
-3 -4 2 -7 11 -6 27 2 40 -29 21 -49 -9 -9 -17 -22 -17 -28 0 -7 -4 -6 -10 3
-8 13 -10 12 -10 -2 0 -10 -4 -18 -9 -18 -4 0 -6 12 -3 27 4 23 2 25 -16 21
-12 -3 -23 -1 -25 6 -5 14 13 56 24 56 5 0 6 7 3 15 -4 10 0 15 11 15 9 0 14
-4 10 -9z m2482 -88 c-3 -10 -5 -4 -5 12 0 17 2 24 5 18 2 -7 2 -21 0 -30z
m-2648 -349 l1 -356 -28 7 c-57 14 -57 12 -59 308 -1 310 -2 319 -14 311 -11
-6 -10 11 1 46 8 24 8 24 9 3 1 -19 7 -23 32 -23 17 0 28 4 24 10 -3 6 1 10 9
10 9 0 15 3 15 8 -2 13 1 32 5 32 2 0 4 -160 5 -356z m4127 289 c-11 -11 -19
6 -11 24 8 17 8 17 12 0 3 -10 2 -21 -1 -24z m-536 -127 c0 -14 -5 -28 -10
-31 -13 -8 -24 20 -16 40 9 24 26 17 26 -9z m40 -6 c0 -11 -4 -20 -10 -20 -5
0 -10 9 -10 20 0 11 5 20 10 20 6 0 10 -9 10 -20z m667 -22 c-3 -8 -6 -5 -6 6
-1 11 2 17 5 13 3 -3 4 -12 1 -19z m1244 -116 c62 -54 97 -76 152 -96 39 -15
48 -22 44 -37 -8 -29 10 -83 37 -112 13 -14 26 -41 30 -60 7 -40 64 -103 110
-123 17 -7 51 -31 75 -53 25 -24 59 -43 79 -47 34 -7 34 -7 28 -48 -14 -101
-126 -402 -172 -465 -2 -1 -51 -4 -111 -6 -121 -2 -114 -5 -232 94 l-53 45 33
10 c32 10 31 10 -32 16 -72 6 -125 34 -153 81 -21 36 -20 46 7 53 12 3 28 15
35 27 25 39 -4 44 -125 23 -28 -5 -34 -2 -52 26 -21 35 -19 51 18 130 24 53
27 117 7 165 -16 36 -99 124 -182 190 -60 49 -94 83 -94 96 0 5 12 9 28 9 36
0 54 13 46 33 -4 12 -1 17 10 17 9 0 19 -7 22 -15 10 -24 113 -19 197 9 40 13
98 31 130 41 31 10 57 22 57 26 0 17 18 9 61 -29z m-4653 -357 c-2 -74 -6 -99
-15 -97 -7 1 -13 -4 -13 -10 0 -14 -19 22 -44 85 -8 20 -11 37 -6 37 4 0 11
-6 13 -12 3 -7 6 -8 6 -3 1 6 -10 22 -23 36 -20 21 -23 33 -19 70 3 24 14 61
24 81 11 21 19 49 19 63 0 18 5 25 20 25 17 0 20 7 21 43 1 23 6 -16 10 -88 5
-71 8 -175 7 -230z m3232 295 c0 -5 -2 -10 -4 -10 -3 0 -8 5 -11 10 -3 6 -1
10 4 10 6 0 11 -4 11 -10z m40 -26 c0 -21 -4 -33 -10 -29 -5 3 -10 19 -10 36
0 16 5 29 10 29 6 0 10 -16 10 -36z m260 11 c0 -14 -4 -25 -10 -25 -5 0 -10
11 -10 25 0 14 5 25 10 25 6 0 10 -11 10 -25z m-2783 -92 c-3 -10 -5 -2 -5 17
0 19 2 27 5 18 2 -10 2 -26 0 -35z m49 -89 c-2 -29 -7 -58 -11 -65 -5 -8 -3
-15 4 -17 11 -4 11 -6 0 -13 -10 -6 -11 -9 -1 -9 6 0 12 -7 12 -16 0 -14 -3
-14 -15 -4 -8 7 -15 17 -15 23 0 6 -10 21 -22 34 -12 13 -16 23 -10 23 7 0 10
18 7 53 -3 36 -2 44 4 27 7 -22 9 -20 17 25 14 87 15 88 25 35 5 -25 7 -68 5
-96z m-915 9 c-12 -20 -14 -14 -5 12 4 9 9 14 11 11 3 -2 0 -13 -6 -23z m2659
7 c0 -5 -4 -10 -10 -10 -5 0 -10 5 -10 10 0 6 5 10 10 10 6 0 10 -4 10 -10z
m605 0 c3 -5 1 -10 -4 -10 -6 0 -11 5 -11 10 0 6 2 10 4 10 3 0 8 -4 11 -10z
m-575 -10 c0 -5 -2 -10 -4 -10 -3 0 -8 5 -11 10 -3 6 -1 10 4 10 6 0 11 -4 11
-10z m3490 -6 c0 -8 -19 -13 -24 -6 -3 5 1 9 9 9 8 0 15 -2 15 -3z m-20 -34
c0 -5 -2 -10 -4 -10 -3 0 -8 5 -11 10 -3 6 -1 10 4 10 6 0 11 -4 11 -10z
m-6420 -29 c0 -21 -46 -81 -61 -81 -17 0 -9 18 21 48 17 17 30 35 30 41 0 6 2
11 5 11 3 0 5 -9 5 -19z m6370 -48 c0 -17 -36 -60 -46 -56 -12 4 -59 -95 -50
-105 3 -3 13 11 21 31 8 21 17 37 20 37 10 0 5 -15 -15 -47 -18 -29 -22 -32
-46 -23 -25 10 -26 9 -22 -18 3 -24 1 -28 -22 -27 -32 1 -71 -31 -63 -54 5
-13 3 -14 -8 -3 -11 10 -4 22 41 67 30 30 62 55 72 55 10 0 18 7 18 16 0 14
-2 15 -17 3 -11 -9 -10 -3 6 19 12 17 26 32 31 32 5 0 12 9 15 20 4 11 14 19
22 18 9 -2 18 3 21 11 3 8 0 11 -7 7 -12 -8 -15 6 -4 17 9 9 33 9 33 0z
m-3966 -98 c-4 -8 -8 -15 -10 -15 -2 0 -4 7 -4 15 0 8 4 15 10 15 5 0 7 -7 4
-15z m106 -90 l25 -29 -25 16 c-14 8 -27 24 -29 34 -2 11 -2 17 0 14 2 -3 15
-18 29 -35z m63 6 c9 -16 17 -35 16 -43 0 -7 -6 -1 -12 13 -7 14 -18 33 -26
43 -7 9 -9 16 -4 16 5 0 16 -13 26 -29z m4687 -13 c0 -6 -6 -5 -15 2 -8 7 -15
14 -15 16 0 2 7 1 15 -2 8 -4 15 -11 15 -16z m-988 -10 c-7 -7 -12 -8 -12 -2
0 14 12 26 19 19 2 -3 -1 -11 -7 -17z m-6800 -64 c3 -60 -11 -84 -49 -84 -14
0 -19 6 -17 23 1 12 3 48 3 79 l1 57 29 -10 c27 -10 30 -15 33 -65z m2865 54
c-3 -8 -6 -5 -6 6 -1 11 2 17 5 13 3 -3 4 -12 1 -19z m-77 2 c0 -5 -5 -10 -11
-10 -5 0 -7 5 -4 10 3 6 8 10 11 10 2 0 4 -4 4 -10z m139 -12 c-7 -13 -16 -36
-20 -53 -6 -25 -7 -26 -8 -7 -1 22 24 82 35 82 2 0 -1 -10 -7 -22z m-1330 -25
c2 -2 -15 -3 -39 -3 -43 0 -43 0 -25 20 17 19 19 19 39 3 12 -10 23 -19 25
-20z m-345 -37 c-6 -39 10 -66 28 -48 6 6 25 12 42 12 16 0 38 8 48 17 18 16
18 14 -2 -31 -18 -43 -19 -55 -9 -109 6 -34 17 -73 25 -88 15 -30 11 -35 -62
-72 l-31 -16 4 44 5 43 -51 19 c-29 10 -51 24 -52 33 -1 8 -2 22 -3 30 0 9 -9
14 -20 12 -10 -2 -16 0 -14 5 31 62 58 126 58 138 0 8 5 26 12 40 15 32 28 14
22 -29z m226 15 c-27 -13 -32 -13 -40 -1 -16 25 6 40 41 27 l30 -12 -31 -14z
m1373 24 c-3 -9 -8 -14 -10 -11 -3 3 -2 9 2 15 9 16 15 13 8 -4z m697 -25 c0
-16 -4 -30 -10 -30 -5 0 -10 14 -10 30 0 17 5 30 10 30 6 0 10 -13 10 -30z
m40 -5 c0 -14 -2 -25 -4 -25 -2 0 -6 11 -8 25 -3 14 -1 25 3 25 5 0 9 -11 9
-25z m3114 16 c3 -5 -1 -14 -8 -20 -12 -10 -13 -8 -9 8 6 23 9 25 17 12z m-44
-24 c0 -9 -2 -9 -8 0 -6 9 -13 5 -26 -12 -10 -14 -24 -25 -29 -25 -6 0 2 13
18 30 27 28 45 31 45 7z m-3475 3 c3 -5 1 -10 -4 -10 -6 0 -11 5 -11 10 0 6 2
10 4 10 3 0 8 -4 11 -10z m862 -12 c-3 -8 -6 -5 -6 6 -1 11 2 17 5 13 3 -3 4
-12 1 -19z m40 0 c-3 -8 -6 -5 -6 6 -1 11 2 17 5 13 3 -3 4 -12 1 -19z m-1240
-10 c-3 -8 -6 -5 -6 6 -1 11 2 17 5 13 3 -3 4 -12 1 -19z m-1713 -7 c3 -4 17
-6 31 -3 18 3 25 0 25 -11 0 -22 -15 -29 -45 -21 -29 7 -55 44 -31 44 8 0 17
-4 20 -9z m1691 -19 c-3 -3 -11 0 -18 7 -9 10 -8 11 6 5 10 -3 15 -9 12 -12z
m105 -26 c0 -26 -6 -18 -14 19 -5 22 -4 26 4 15 5 -8 10 -24 10 -34z m3714 11
c3 -21 0 -24 -30 -21 -18 1 -38 5 -44 9 -19 12 -1 22 34 20 29 -3 34 0 29 13
-4 10 -3 14 1 10 4 -3 9 -17 10 -31z m152 16 c22 -29 18 -49 -6 -28 -19 17
-27 45 -14 45 4 0 13 -8 20 -17z m84 2 c7 -8 8 -15 2 -15 -5 0 -15 7 -22 15
-7 8 -8 15 -2 15 5 0 15 -7 22 -15z m-3610 -9 c0 -3 -4 -8 -10 -11 -5 -3 -10
-1 -10 4 0 6 5 11 10 11 6 0 10 -2 10 -4z m3566 -33 c-11 -11 -19 6 -11 24 8
17 8 17 12 0 3 -10 2 -21 -1 -24z m25 -6 c-10 -9 -11 -8 -5 6 3 10 9 15 12 12
3 -3 0 -11 -7 -18z m-297 5 c2 -4 -9 -15 -25 -24 -16 -10 -29 -12 -29 -7 0 6
9 13 20 16 11 3 17 9 14 14 -3 5 -1 9 5 9 5 0 12 -3 15 -8z m1447 -9 c13 -16
12 -17 -3 -4 -10 7 -18 15 -18 17 0 8 8 3 21 -13z m-6911 -2 c0 -5 -7 -14 -15
-21 -16 -14 -18 -10 -9 14 6 17 24 22 24 7z m1967 -23 c-3 -7 -5 -2 -5 12 0
14 2 19 5 13 2 -7 2 -19 0 -25z m-1919 -6 c-7 -10 -14 -19 -15 -21 -3 -4 2 28
6 47 1 2 6 0 11 -3 8 -5 7 -12 -2 -23z m1678 3 c-6 -18 -26 -11 -26 8 0 7 4 6
10 -3 8 -13 10 -12 10 4 0 11 3 17 6 13 4 -3 4 -13 0 -22z m-3326 11 c0 -2
-11 -6 -25 -8 -13 -3 -22 -1 -19 3 5 9 44 13 44 5z m1620 -16 c0 -5 -9 -28
-21 -50 -25 -48 -46 -65 -35 -29 4 13 8 29 9 34 9 33 47 70 47 45z m5341 -30
c-23 -22 -45 -40 -49 -40 -9 1 75 80 84 80 4 0 -12 -18 -35 -40z m369 19 c0
-5 -4 -9 -10 -9 -5 0 -10 7 -10 16 0 8 5 12 10 9 6 -3 10 -10 10 -16z m-3394
-12 c22 -19 24 -25 13 -32 -8 -5 -11 -5 -7 0 4 4 -7 19 -24 32 -18 12 -27 23
-21 23 7 0 24 -11 39 -23z m1792 -2 c2 -2 -9 -21 -25 -42 -43 -55 -89 -134
-96 -165 -6 -21 -1 -38 16 -65 13 -21 34 -58 47 -83 l22 -45 -66 65 c-75 73
-78 84 -47 190 21 76 55 146 73 154 13 5 68 -1 76 -9z m140 -15 c46 -33 53
-50 21 -50 -28 0 -54 -15 -126 -73 -43 -35 -63 -58 -63 -73 0 -19 21 -97 63
-236 8 -27 14 -48 12 -48 -13 0 -155 249 -155 273 0 33 67 143 117 192 54 53
75 56 131 15z m1445 -15 c-3 -9 -8 -14 -10 -11 -3 3 -2 9 2 15 9 16 15 13 8
-4z m-327 -17 c4 -7 3 -8 -4 -4 -7 4 -12 3 -12 -3 0 -5 6 -11 13 -14 7 -2 8
-8 3 -13 -5 -5 -11 -4 -13 4 -3 6 -12 12 -21 12 -13 0 -12 3 4 15 23 18 21 17
30 3z m-6918 -100 c18 -57 62 -204 98 -328 36 -124 113 -382 170 -575 139
-465 142 -476 149 -507 7 -25 5 -26 -67 -43 -87 -20 -326 -65 -342 -65 -6 0
-4 5 4 10 13 8 12 10 -2 10 -28 0 -33 -3 -30 -20 2 -10 -1 -9 -9 3 -8 13 -18
17 -34 13 -36 -9 -55 3 -55 35 0 26 4 29 40 35 22 4 48 13 57 20 17 13 17 15
0 28 -10 8 -15 20 -11 29 5 13 -8 70 -42 185 -2 8 -10 12 -17 9 -11 -3 -15
-85 -6 -129 2 -9 0 -17 -6 -17 -6 -1 -11 40 -13 99 -2 66 1 100 8 100 7 0 8 6
0 19 -6 13 -10 183 -10 485 0 443 1 466 18 466 10 0 26 6 36 13 16 12 14 13
-18 9 l-36 -4 0 66 c0 59 2 66 20 66 15 0 20 7 20 24 0 14 -4 28 -10 31 -23
14 -9 35 23 35 l33 0 32 -102z m3597 92 c3 -6 -4 -10 -17 -10 -18 0 -20 2 -8
10 19 12 18 12 25 0z m3625 0 c0 -5 -5 -10 -11 -10 -5 0 -7 5 -4 10 3 6 8 10
11 10 2 0 4 -4 4 -10z m-3390 -4 c0 -2 -7 -7 -16 -10 -8 -3 -12 -2 -9 4 6 10
25 14 25 6z m2995 -13 c-1 -10 -9 -17 -18 -15 -11 2 -14 -3 -10 -19 4 -16 2
-20 -8 -17 -8 3 -22 1 -32 -4 -29 -15 -1 23 36 50 38 26 36 26 32 5z m369 1
c9 -24 7 -27 -9 -10 -17 17 -19 26 -6 26 5 0 12 -7 15 -16z m-1316 -61 c30
-39 32 -63 6 -63 -8 0 -19 -11 -24 -25 -10 -27 -21 -30 -51 -15 -25 14 -24 9
10 -53 16 -28 32 -68 36 -87 6 -34 8 -35 52 -35 38 -1 49 -5 70 -30 13 -17 21
-22 17 -12 -8 22 11 22 91 2 90 -23 169 -57 153 -65 -7 -4 -69 -10 -138 -14
-69 -4 -134 -8 -145 -10 -167 -25 -217 -14 -235 53 -6 23 -22 74 -35 114 -35
104 -45 158 -35 178 10 18 123 102 150 111 22 8 44 -7 78 -49z m-4358 37 c0
-5 -5 -10 -11 -10 -5 0 -7 5 -4 10 3 6 8 10 11 10 2 0 4 -4 4 -10z m5653 -32
c-10 -21 -10 -21 -9 9 1 19 5 28 10 23 6 -6 5 -18 -1 -32z m-5692 12 c10 0 19
-4 19 -10 0 -13 -43 4 -46 19 -1 6 0 7 3 1 2 -5 13 -10 24 -10z m533 -15 c19
-17 26 -34 26 -60 0 -45 -14 -45 -37 2 -10 20 -27 41 -38 47 -11 6 -22 12 -25
14 -6 4 22 22 36 22 6 0 23 -11 38 -25z m-1577 -15 c-3 -11 -2 -18 2 -15 13 8
0 -929 -13 -937 -12 -8 -79 188 -71 210 2 7 5 173 5 369 l1 356 32 17 c43 24
50 24 44 0z m6318 -28 c-6 -6 -35 18 -35 29 0 5 9 1 20 -8 11 -9 17 -19 15
-21z m82 32 c-3 -3 -12 -4 -19 -1 -8 3 -5 6 6 6 11 1 17 -2 13 -5z m-2872 -44
c-3 -5 -12 -10 -18 -10 -7 0 -6 4 3 10 19 12 23 12 15 0z m2717 -22 c-8 -8 -9
-4 -5 13 4 13 8 18 11 10 2 -7 -1 -18 -6 -23z m-19 -33 c-7 -21 -13 -19 -13 6
0 11 4 18 10 14 5 -3 7 -12 3 -20z m50 1 c9 -7 16 -22 16 -32 -1 -15 -2 -16
-6 -3 -2 10 -13 19 -24 22 -10 3 -19 10 -19 16 0 14 11 13 33 -3z m380 -6 c-3
-12 -8 -19 -11 -16 -5 6 5 36 12 36 2 0 2 -9 -1 -20z m-3056 4 c-3 -3 -12 -4
-19 -1 -8 3 -5 6 6 6 11 1 17 -2 13 -5z m-2057 -76 c12 -35 31 -81 41 -102 11
-23 19 -62 19 -92 l0 -51 -58 -7 c-32 -4 -87 -15 -122 -26 -36 -11 -66 -20
-67 -20 -2 0 -3 43 -3 95 0 88 2 98 24 120 14 13 28 35 32 47 3 13 15 35 25
50 11 14 19 31 19 37 0 6 15 11 34 11 32 0 34 -3 56 -62z m4680 2 c5 0 11 6
13 13 3 6 6 8 6 2 0 -5 -4 -17 -9 -25 -9 -13 -11 -13 -20 0 -5 8 -9 24 -8 35
1 17 1 17 5 -2 2 -13 8 -23 13 -23z m-5057 1 c-4 -3 -15 -19 -23 -35 -12 -23
-16 -25 -18 -11 -2 10 1 21 8 25 6 4 11 10 11 14 -3 20 1 25 15 19 9 -3 12 -9
7 -12z m5422 -8 c-4 -16 -10 -53 -14 -83 -8 -53 -8 -52 -8 28 0 65 3 82 15 82
11 0 13 -7 7 -27z m24 -60 c-9 -71 -28 -125 -41 -117 -5 3 -3 15 5 27 8 12 17
46 20 75 5 46 13 72 21 72 1 0 -1 -26 -5 -57z m-382 -15 c-3 -8 -6 -5 -6 6 -1
11 2 17 5 13 3 -3 4 -12 1 -19z m44 -70 c5 -10 7 -18 3 -18 -11 0 -43 45 -43
60 0 16 20 -5 40 -42z m-2514 16 c-3 -3 -12 -4 -19 -1 -8 3 -5 6 6 6 11 1 17
-2 13 -5z m2553 -64 c0 -5 -4 -10 -10 -10 -5 0 -10 5 -10 10 0 6 5 10 10 10 6
0 10 -4 10 -10z m40 -30 c0 -5 -4 -10 -9 -10 -6 0 -13 5 -16 10 -3 6 1 10 9
10 9 0 16 -4 16 -10z m25 -38 c-3 -3 -11 0 -18 7 -9 10 -8 11 6 5 10 -3 15 -9
12 -12z m-771 -119 l35 -57 -32 -22 c-17 -12 -41 -36 -52 -53 l-20 -31 -101 0
c-55 0 -229 -3 -386 -7 l-286 -6 -5 94 c-2 52 -8 104 -12 117 l-7 22 415 0
415 0 36 -57z m-2909 -2 c28 -5 118 -18 200 -30 83 -11 165 -25 183 -30 109
-32 451 -81 636 -91 110 -6 202 -12 204 -15 3 -3 -237 -5 -534 -5 -491 0 -822
-7 -833 -16 -2 -2 444 -4 992 -4 l997 0 0 -92 c0 -51 3 -150 7 -220 l6 -127
-324 -3 c-310 -3 -369 1 -369 26 0 7 14 52 31 100 33 95 33 140 1 168 -18 16
-225 28 -872 49 -451 14 -464 13 -516 -26 -24 -18 -49 -35 -56 -38 -7 -2 -9
-8 -5 -13 4 -5 11 -4 15 2 20 31 50 35 207 22 l155 -12 0 -25 c0 -13 7 -33 17
-43 15 -17 13 -18 -63 -18 -57 1 -353 25 -360 29 -2 2 6 103 11 138 5 34 12
45 43 64 20 12 46 22 57 21 16 -1 17 1 5 8 -11 7 -16 34 -19 106 l-3 97 68 -7
c38 -4 92 -11 119 -15z m1845 -161 c0 -6 -51 -9 -137 -8 l-138 2 100 6 c168
10 175 10 175 0z m-583 -6 c-3 -3 -12 -4 -19 -1 -8 3 -5 6 6 6 11 1 17 -2 13
-5z m1238 -43 c25 -8 26 -9 8 -10 -18 -1 -23 -7 -23 -26 0 -14 -4 -25 -9 -25
-5 0 -12 -33 -15 -72 -8 -111 -17 -168 -27 -168 -5 0 -9 -18 -9 -40 0 -31 -4
-40 -17 -41 -15 0 -15 -2 2 -8 28 -12 -26 -19 -202 -27 l-143 -6 0 222 0 223
203 -6 c111 -3 216 -10 232 -16z m-3792 -58 c4 -20 5 -39 2 -41 -2 -2 -22 -1
-45 3 l-41 7 6 41 c10 57 12 59 44 42 21 -10 30 -24 34 -52z m1227 -38 c-13
-16 -57 -20 -78 -6 -9 5 -2 8 18 9 18 0 35 3 38 6 3 3 12 6 20 6 12 0 12 -3 2
-15z m-1289 -16 l69 -12 0 -53 0 -52 -150 -1 c-158 -2 -236 12 -281 48 l-22
17 39 19 c94 44 210 56 345 34z m1816 -15 c10 -10 25 -13 39 -10 14 4 24 2 24
-4 0 -11 -12 -13 -47 -11 -11 1 -24 -3 -28 -8 -10 -17 -41 -13 -76 8 l-31 19
29 10 c41 15 72 14 90 -4z m623 -24 c0 -5 -5 -10 -11 -10 -5 0 -7 5 -4 10 3 6
8 10 11 10 2 0 4 -4 4 -10z m-29 -39 l37 -6 -22 -45 c-27 -56 -52 -116 -66
-154 -6 -16 -13 -26 -16 -24 -3 3 4 30 16 59 11 30 20 59 20 65 0 7 -59 14
-177 18 -179 8 -232 17 -177 30 15 4 45 23 66 41 l37 34 123 -6 c68 -3 139 -8
159 -12z m-651 -1 c0 -5 -5 -10 -11 -10 -5 0 -7 5 -4 10 3 6 8 10 11 10 2 0 4
-4 4 -10z m-2943 -137 c38 -19 73 -39 79 -44 6 -5 14 -6 17 -2 4 3 9 -2 13
-11 3 -9 12 -16 19 -16 7 0 15 -7 19 -15 3 -8 11 -15 19 -15 19 0 79 -65 70
-75 -5 -4 -3 -5 3 -2 6 4 20 -3 30 -14 17 -19 17 -20 -2 -14 -14 4 -13 2 4 -6
12 -7 22 -16 22 -21 0 -4 7 -8 15 -8 8 0 15 -2 15 -4 0 -2 3 -13 6 -23 5 -15
4 -16 -6 -3 -10 13 -11 13 -7 0 2 -8 11 -14 19 -12 21 3 29 -30 11 -46 -7 -7
-13 -10 -13 -7 0 4 -7 -1 -16 -10 -10 -9 -14 -26 -11 -41 2 -13 1 -27 -3 -29
-5 -3 -6 -14 -3 -25 3 -11 0 -20 -6 -20 -6 0 -11 9 -11 20 0 17 -3 19 -19 10
-26 -13 -31 -13 -31 4 0 8 -3 16 -7 18 -5 2 -20 19 -35 39 -15 20 -43 44 -63
53 -21 10 -41 30 -50 49 -55 122 -184 293 -212 282 -9 -3 -13 0 -10 7 2 7 11
12 20 12 9 -1 14 2 11 8 -10 15 43 -2 113 -39z m901 23 c112 -28 155 -34 263
-32 76 1 110 -2 113 -10 3 -7 -2 -15 -10 -18 -8 -3 -14 -17 -14 -31 0 -26 -24
-35 -33 -12 -3 8 -10 5 -21 -9 -20 -27 -98 -36 -175 -19 -31 6 -67 12 -79 13
-27 1 -72 27 -72 42 0 5 5 12 10 15 6 3 10 12 10 18 -1 7 -9 2 -19 -10 -11
-13 -27 -23 -36 -23 -16 0 -16 2 -3 23 8 12 18 31 21 42 7 19 6 19 -10 -1 -10
-12 -23 -30 -29 -40 -8 -13 -15 -16 -23 -9 -7 7 -4 20 10 43 24 37 21 36 97
18z m2009 -2 c-3 -3 -12 -4 -19 -1 -8 3 -5 6 6 6 11 1 17 -2 13 -5z m5637 -29
c5 -22 4 -26 -4 -15 -5 8 -10 24 -10 34 0 26 6 18 14 -19z m-7267 -67 c-3 -7
-5 -2 -5 12 0 14 2 19 5 13 2 -7 2 -19 0 -25z m7347 -53 c5 -22 4 -26 -4 -15
-5 8 -10 24 -10 34 0 26 6 18 14 -19z m-4256 5 c6 0 12 -9 12 -20 0 -20 -7
-20 -285 -20 -270 0 -285 1 -295 19 -6 13 -6 21 0 23 7 2 469 1 568 -2z m4226
-5 c3 -8 1 -15 -4 -15 -6 0 -10 7 -10 15 0 8 2 15 4 15 2 0 6 -7 10 -15z
m-8659 -57 c12 -46 -9 -32 -27 19 -16 45 -16 46 2 27 10 -10 22 -31 25 -46z
m4865 52 c-8 -5 -10 -10 -5 -10 6 0 3 -5 -5 -10 -8 -5 -54 -10 -102 -10 -81 0
-88 2 -88 20 0 19 7 20 108 20 73 0 102 -3 92 -10z m260 6 c0 -2 -8 -10 -17
-17 -16 -13 -17 -12 -4 4 13 16 21 21 21 13z m-1030 -125 c-11 -21 -30 -37
-30 -25 0 8 30 44 37 44 2 0 -1 -9 -7 -19z m-35 -69 c-7 -8 -35 7 -35 18 0 6
7 6 20 -2 10 -7 17 -14 15 -16z m-111 -52 c-15 -22 -28 -40 -29 -40 -2 0 -12
18 -23 40 l-19 40 48 0 49 0 -26 -40z m494 -2 l-3 -43 -198 -3 -198 -2 12 22
c6 13 21 33 32 46 20 21 27 22 189 22 l169 0 -3 -42z m522 37 c0 -3 -9 -24
-20 -45 l-20 -40 -130 0 -130 0 0 45 0 45 150 0 c83 0 150 -2 150 -5z m3817
-27 c-3 -7 -5 -2 -5 12 0 14 2 19 5 13 2 -7 2 -19 0 -25z m-50 -20 c-3 -7 -5
-2 -5 12 0 14 2 19 5 13 2 -7 2 -19 0 -25z m-4722 -16 c-6 -7 -35 18 -35 31 0
5 9 2 20 -8 11 -10 18 -20 15 -23z m4742 -24 c-3 -8 -6 -5 -6 6 -1 11 2 17 5
13 3 -3 4 -12 1 -19z m18 -27 c-3 -6 -11 -11 -16 -11 -5 0 -4 6 3 14 14 16 24
13 13 -3z m112 -33 c-3 -7 -5 -2 -5 12 0 14 2 19 5 13 2 -7 2 -19 0 -25z m-87
-31 c0 -10 -4 -16 -9 -13 -5 4 -11 3 -14 -1 -2 -5 -2 -2 0 5 1 8 3 23 3 35 0
18 2 19 10 7 5 -8 10 -23 10 -33z m-8605 -3 c66 -8 122 -17 126 -20 4 -2 87
-20 185 -39 276 -55 352 -74 358 -92 4 -9 4 -18 2 -20 -5 -5 -116 19 -201 42
-27 8 -68 17 -90 21 -22 4 -44 9 -50 13 -14 9 -122 32 -175 37 -25 3 -88 -2
-140 -11 -52 -8 -117 -18 -144 -21 -28 -3 -54 -8 -59 -11 -6 -3 -24 -7 -41 -9
-17 -2 -42 -6 -56 -10 -14 -3 -52 -10 -85 -15 -33 -4 -89 -13 -125 -18 -36 -6
-72 -11 -80 -11 -10 0 -11 -3 -4 -8 7 -4 -20 -8 -58 -8 -39 -1 -73 -6 -77 -10
-9 -13 -131 -16 -131 -4 0 6 2 10 4 10 4 0 197 38 235 46 13 3 21 7 18 10 -4
4 -138 -20 -235 -41 -17 -4 -22 -1 -22 15 0 22 2 23 140 45 52 9 141 25 198
35 57 11 105 20 108 20 3 0 2 9 -1 20 -5 17 -2 20 26 20 18 0 60 7 93 15 77
18 116 23 141 19 11 -2 74 -11 140 -20z m1765 8 c0 10 7 15 18 13 9 -2 23 -4
30 -4 7 -1 37 -23 66 -51 50 -47 86 -104 102 -159 3 -14 15 -38 26 -55 l20
-31 -7 30 c-7 38 -7 41 1 92 3 23 12 44 18 46 7 3 46 -1 87 -9 93 -17 356 -63
389 -69 14 -2 79 -13 144 -25 66 -11 156 -23 200 -26 45 -3 119 -8 166 -12
l85 -7 -70 -27 c-68 -27 -76 -28 -270 -27 -123 0 -261 -6 -355 -17 -85 -9
-180 -16 -210 -15 -72 1 -140 -17 -133 -35 3 -9 -2 -14 -16 -14 -35 0 -24 -15
35 -43 31 -16 54 -30 51 -33 -7 -7 -109 -34 -130 -34 -10 0 -15 5 -12 10 9 14
25 70 20 70 -2 0 -18 -27 -37 -60 -32 -60 -62 -87 -33 -30 8 16 15 34 15 40 0
6 9 20 20 32 13 14 16 25 10 32 -5 7 -10 33 -12 59 -4 62 -21 61 -29 -1 -4
-27 -12 -59 -19 -72 l-13 -24 -8 22 c-5 13 -14 22 -21 20 -26 -6 -58 41 -67
100 -12 70 -42 185 -51 192 -15 11 -28 47 -35 95 -6 46 -5 49 9 31 13 -16 16
-17 16 -4z m6854 -78 c5 -14 -11 -61 -18 -52 -2 1 -6 18 -9 36 -5 23 -3 32 7
32 8 0 17 -7 20 -16z m-7522 -116 c-6 -6 -22 -7 -39 -3 -15 4 -39 8 -53 9 -14
1 -26 8 -28 18 -2 13 9 18 60 25 62 8 63 7 66 -16 2 -13 -1 -28 -6 -33z m7531
31 c3 -11 3 -37 0 -57 -3 -20 -2 -33 3 -29 4 4 11 29 15 55 l7 47 -2 -50 c-2
-27 -6 -61 -10 -75 l-7 -25 12 25 11 25 9 -29 c5 -17 6 -32 4 -35 -3 -2 -5 2
-5 10 -1 10 -4 9 -14 -4 -13 -17 -15 -15 -26 18 -7 21 -10 53 -7 72 4 20 2 44
-4 54 -6 11 -6 19 -1 19 6 0 12 -9 15 -21z m52 -35 l-15 -29 0 32 c0 17 6 33
13 36 18 6 19 -6 2 -39z m-7570 -36 c1 -2 6 -38 10 -82 l7 -79 -31 22 c-16 12
-39 34 -49 49 -27 40 -61 109 -56 115 4 4 113 -18 119 -25z m2466 -29 c35 -23
80 -56 99 -73 19 -18 71 -59 115 -90 44 -32 83 -64 88 -71 9 -17 14 -351 5
-360 -7 -8 -228 30 -265 46 -44 17 -69 -4 -93 -76 -12 -36 -20 -77 -17 -91 6
-33 -5 -37 -52 -18 -27 11 -43 24 -47 39 -6 25 18 267 30 300 7 19 7 19 -8 1
-14 -18 -18 -36 -33 -199 l-8 -77 -30 21 c-16 12 -43 38 -58 58 -25 31 -28 42
-23 83 3 26 30 100 61 168 31 67 54 124 51 127 -3 3 -18 -25 -35 -62 -17 -36
-42 -80 -56 -96 -15 -19 -25 -43 -25 -62 0 -18 -4 -47 -9 -65 -12 -39 5 -85
43 -121 30 -28 32 -40 10 -67 -8 -10 -13 -14 -10 -7 3 6 2 22 -3 35 l-10 23 0
-24 c-1 -21 -5 -18 -32 25 -17 27 -41 60 -54 74 -26 28 -51 107 -60 190 -7 63
-18 48 178 238 58 56 102 102 96 102 -6 0 -38 -27 -72 -60 -37 -36 -77 -65
-99 -72 -27 -8 -40 -19 -47 -39 -5 -16 -24 -46 -41 -68 -29 -36 -32 -45 -28
-97 l3 -58 -40 -24 c-25 -15 -31 -22 -17 -19 26 6 28 0 6 -24 -16 -18 -84
-166 -84 -183 0 -8 98 82 144 132 l20 23 8 -22 c7 -17 3 -28 -17 -49 -15 -16
-25 -38 -25 -56 0 -31 -2 -32 -70 -37 -38 -3 -39 -13 -2 -20 15 -3 59 -15 97
-26 l70 -19 -317 -3 c-175 -1 -324 -2 -330 -3 -7 -1 -17 11 -22 25 -7 22 -2
36 38 94 51 75 57 106 24 129 -36 26 -54 19 -93 -34 -20 -27 -40 -50 -43 -50
-11 0 -52 96 -83 194 -18 60 -39 104 -59 125 l-30 34 -16 -39 -17 -39 -13 39
c-19 53 -37 71 -98 100 -28 13 -60 31 -71 39 -18 14 -15 15 45 21 36 3 137 13
225 22 110 12 251 18 453 19 l293 1 -6 -51 c-4 -27 -9 -52 -12 -55 -3 -3 -102
-8 -221 -11 -198 -6 -442 -24 -467 -35 -14 -6 149 3 290 15 66 6 185 12 264
13 l143 3 -4 -66 c-4 -46 -14 -83 -35 -125 -35 -69 -33 -98 3 -55 13 16 24 32
24 37 0 4 -7 -1 -15 -12 -21 -28 -18 -9 7 39 17 33 23 68 29 165 5 77 12 129
21 139 7 9 33 24 58 35 55 24 255 77 291 78 14 0 55 -18 90 -41z m5106 -1 c-3
-8 -6 -5 -6 6 -1 11 2 17 5 13 3 -3 4 -12 1 -19z m-7185 -48 l66 -12 7 -82 c7
-82 -6 -190 -25 -201 -5 -3 -28 -8 -52 -11 -40 -6 -45 -4 -56 20 -13 30 -42
211 -42 268 0 33 3 38 18 34 9 -3 47 -10 84 -16z m-804 -32 c2 -15 10 -32 18
-38 19 -16 18 -34 -1 -26 -8 3 -15 2 -15 -3 0 -5 9 -11 20 -14 11 -3 25 -18
31 -34 5 -15 28 -65 50 -110 22 -46 38 -87 35 -92 -3 -4 -25 -11 -48 -15 -24
-3 -83 -15 -133 -26 -49 -10 -116 -25 -147 -31 -52 -11 -145 -9 -243 6 -16 2
-7 -2 20 -9 98 -27 221 -16 483 43 l83 18 15 -30 c9 -16 12 -33 7 -37 -6 -6
-187 -48 -313 -74 -14 -2 -64 -14 -112 -25 -150 -35 -425 -88 -616 -120 -220
-37 -352 -41 -439 -12 -32 10 -97 31 -146 47 l-88 28 3 130 c3 128 4 131 26
134 12 2 20 7 18 11 -3 4 21 12 52 19 474 98 695 141 703 136 5 -3 29 -2 52 2
34 5 38 8 22 15 -18 7 -18 8 5 8 14 1 32 5 40 10 8 6 19 7 24 3 6 -3 0 -9 -14
-13 l-25 -7 28 -1 c17 -1 27 4 27 13 0 14 54 29 170 47 36 6 67 14 70 19 3 5
12 8 20 7 23 -2 114 15 125 23 6 4 37 10 70 13 33 3 61 10 63 16 2 5 15 6 30
2 19 -5 28 -15 30 -33z m3260 16 c20 -8 55 -33 77 -54 22 -21 49 -43 60 -47
40 -16 133 -74 150 -93 18 -20 17 -20 -36 -20 -104 1 -197 30 -284 89 -17 12
-46 21 -67 21 -55 0 -47 18 10 23 41 3 39 4 -18 5 -60 2 -69 5 -118 45 l-52
42 52 6 c75 10 183 1 226 -17z m-698 -107 c0 -2 -10 -12 -22 -23 l-23 -19 19
23 c18 21 26 27 26 19z m-3253 -23 c-3 -3 -12 -4 -19 -1 -8 3 -5 6 6 6 11 1
17 -2 13 -5z m1047 -142 c12 -37 -12 -25 -34 18 -11 21 -20 43 -20 47 0 14 47
-43 54 -65z m862 -7 c-36 -47 -43 -45 -8 4 15 21 29 37 31 35 2 -2 -8 -19 -23
-39z m-835 -52 c7 -16 15 -31 17 -35 2 -5 -3 -8 -11 -8 -13 0 -37 39 -37 60 0
19 17 9 31 -17z m1066 21 c-3 -3 -12 -4 -19 -1 -8 3 -5 6 6 6 11 1 17 -2 13
-5z m-139 -25 l80 -2 -15 -24 c-8 -13 -19 -23 -23 -23 -7 0 -70 -151 -70 -168
0 -5 -9 -12 -20 -15 -11 -3 -20 -11 -20 -17 0 -9 4 -9 16 1 14 12 14 9 -1 -26
-9 -22 -34 -82 -56 -134 -21 -52 -44 -100 -50 -105 -9 -8 -10 -6 -4 9 4 11 10
50 12 88 3 37 10 70 14 73 5 3 9 13 9 22 0 15 -2 15 -11 2 -7 -11 -9 -7 -8 20
0 19 0 38 -1 43 -1 4 -4 19 -5 35 -1 15 -7 50 -13 77 -10 47 -9 52 16 80 19
21 21 24 5 11 -13 -11 -23 -14 -23 -9 0 15 69 75 79 69 5 -3 44 -6 89 -7z
m250 -75 c37 -56 41 -68 30 -82 -12 -15 -11 -16 4 -4 14 11 18 10 27 -6 7 -13
7 -23 -2 -32 -10 -10 -9 -12 4 -7 11 4 28 -10 53 -43 l37 -48 -28 -41 c-15
-23 -39 -44 -51 -47 -15 -4 -20 -9 -12 -14 11 -7 -6 -32 -89 -138 -25 -31 -28
-32 -86 -27 -42 4 -54 2 -40 -4 22 -11 6 -15 -19 -5 -23 9 -20 44 13 116 41
92 125 349 123 376 -1 12 -9 36 -17 52 -28 54 8 23 53 -46z m-598 -49 c-19
-19 -28 -35 -22 -35 10 0 9 -7 -1 -27 -17 -33 -63 -173 -73 -223 -7 -33 -8
-30 -30 55 -13 50 -23 99 -23 110 0 13 20 34 53 58 29 21 68 53 86 72 19 19
36 32 39 30 2 -3 -11 -21 -29 -40z m1435 -46 c-3 -8 -15 -20 -26 -27 -12 -8
-19 -9 -15 -4 3 5 10 22 16 37 7 19 14 25 21 18 5 -5 7 -16 4 -24z m-1919 -13
c3 -19 3 -39 0 -44 -3 -6 -1 -12 5 -14 6 -2 9 -13 7 -23 -4 -16 -9 -10 -25 25
-35 79 -37 90 -14 90 15 0 22 -9 27 -34z m-186 -127 c11 -26 11 -32 -1 -40
-11 -8 -11 -9 3 -7 13 2 26 -14 48 -61 l31 -64 -103 7 c-57 4 -112 8 -123 11
-11 2 -37 4 -57 4 -21 1 -38 5 -38 10 0 10 209 171 221 171 4 0 12 -14 19 -31z
m1668 -66 c-10 -2 -28 -2 -40 0 -13 2 -5 4 17 4 22 1 32 -1 23 -4z m655 0 c-7
-2 -19 -2 -25 0 -7 3 -2 5 12 5 14 0 19 -2 13 -5z m-200 -10 c-7 -2 -19 -2
-25 0 -7 3 -2 5 12 5 14 0 19 -2 13 -5z m307 -4 c0 -5 -4 -7 -10 -4 -5 3 -10
1 -10 -4 0 -7 -27 -11 -72 -10 l-73 1 75 13 c41 6 78 13 83 14 4 0 7 -4 7 -10z
m-253 -25 c-3 -3 -12 -4 -19 -1 -8 3 -5 6 6 6 11 1 17 -2 13 -5z m-980 -180
c-3 -3 -12 -4 -19 -1 -8 3 -5 6 6 6 11 1 17 -2 13 -5z m188 -39 l60 -14 -55 4
c-30 2 -63 4 -73 5 -10 0 -15 5 -12 10 7 12 5 12 80 -5z"/>
<path d="M1920 5320 c-23 -7 -23 -8 -3 -9 12 -1 25 4 28 9 3 6 5 10 3 9 -2 -1
-14 -5 -28 -9z"/>
<path d="M2010 5320 c20 -13 70 -13 70 0 0 6 -19 10 -42 10 -32 0 -39 -3 -28
-10z"/>
<path d="M5918 3839 c-84 -12 -148 -52 -148 -91 0 -25 6 -23 55 20 50 44 100
62 176 63 39 0 49 3 34 9 -24 10 -42 10 -117 -1z"/>
<path d="M5990 3650 c-13 -8 -13 -10 2 -10 9 0 20 5 23 10 8 13 -5 13 -25 0z"/>
<path d="M6155 3634 c-22 -13 -58 -26 -80 -29 -22 -4 -47 -8 -55 -11 -17 -4
-55 -62 -47 -70 3 -3 22 -1 42 5 33 9 41 7 77 -20 37 -26 88 -39 88 -22 0 3
-12 26 -26 50 l-26 44 39 34 c47 41 41 49 -12 19z"/>
<path d="M7295 3330 c-3 -5 -1 -10 4 -10 6 0 11 5 11 10 0 6 -2 10 -4 10 -3 0
-8 -4 -11 -10z"/>
<path d="M7170 3170 c0 -5 5 -10 10 -10 6 0 10 5 10 10 0 6 -4 10 -10 10 -5 0
-10 -4 -10 -10z"/>
<path d="M103 2903 c-21 -8 -15 -43 6 -43 11 0 22 4 25 9 8 12 -17 39 -31 34z"/>
<path d="M108 2823 c7 -3 16 -2 19 1 4 3 -2 6 -13 5 -11 0 -14 -3 -6 -6z"/>
<path d="M100 1460 c-8 -5 -10 -10 -5 -10 6 0 17 5 25 10 8 5 11 10 5 10 -5 0
-17 -5 -25 -10z"/>
<path d="M900 1726 c0 -3 9 -10 20 -16 11 -6 20 -8 20 -6 0 3 -9 10 -20 16
-11 6 -20 8 -20 6z"/>
<path d="M940 1471 c0 -5 5 -13 10 -16 6 -3 10 -2 10 4 0 5 -4 13 -10 16 -5 3
-10 2 -10 -4z"/>
<path d="M390 1220 c-23 -7 -22 -8 10 -8 19 0 46 4 60 8 23 7 22 8 -10 8 -19
0 -46 -4 -60 -8z"/>
<path d="M2888 1005 c-3 -14 -1 -25 3 -25 5 0 9 11 9 25 0 14 -2 25 -4 25 -2
0 -6 -11 -8 -25z"/>
<path d="M3213 833 c9 -2 25 -2 35 0 9 3 1 5 -18 5 -19 0 -27 -2 -17 -5z"/>
<path d="M3520 805 c7 -9 15 -13 17 -11 7 7 -7 26 -19 26 -6 0 -6 -6 2 -15z"/>
<path d="M3545 670 c3 -5 8 -10 11 -10 2 0 4 5 4 10 0 6 -5 10 -11 10 -5 0 -7
-4 -4 -10z"/>
<path d="M3535 570 c3 -5 8 -10 11 -10 2 0 4 5 4 10 0 6 -5 10 -11 10 -5 0 -7
-4 -4 -10z"/>
<path d="M3625 510 c3 -5 8 -10 11 -10 2 0 4 5 4 10 0 6 -5 10 -11 10 -5 0 -7
-4 -4 -10z"/>
<path d="M1278 943 c7 -3 16 -2 19 1 4 3 -2 6 -13 5 -11 0 -14 -3 -6 -6z"/>
<path d="M1208 933 c7 -3 16 -2 19 1 4 3 -2 6 -13 5 -11 0 -14 -3 -6 -6z"/>
<path d="M1380 915 l-45 -14 50 6 c28 3 54 9 60 14 13 12 -10 10 -65 -6z"/>
<path d="M1478 923 c7 -3 16 -2 19 1 4 3 -2 6 -13 5 -11 0 -14 -3 -6 -6z"/>
<path d="M1520 926 c0 -2 7 -7 16 -10 8 -3 12 -2 9 4 -6 10 -25 14 -25 6z"/>
<path d="M1118 913 c7 -3 16 -2 19 1 4 3 -2 6 -13 5 -11 0 -14 -3 -6 -6z"/>
<path d="M1048 903 c7 -3 16 -2 19 1 4 3 -2 6 -13 5 -11 0 -14 -3 -6 -6z"/>
<path d="M998 893 c6 -2 18 -2 25 0 6 3 1 5 -13 5 -14 0 -19 -2 -12 -5z"/>
<path d="M1270 890 c-35 -7 -35 -7 -5 -9 17 0 37 4 45 9 17 11 11 11 -40 0z"/>
<path d="M1018 843 c7 -3 16 -2 19 1 4 3 -2 6 -13 5 -11 0 -14 -3 -6 -6z"/>
<path d="M978 833 c7 -3 16 -2 19 1 4 3 -2 6 -13 5 -11 0 -14 -3 -6 -6z"/>
<path d="M756 700 c11 -9 185 -52 191 -47 2 3 -42 16 -98 30 -56 14 -97 22
-93 17z"/>
<path d="M2825 590 c-3 -5 -1 -10 4 -10 6 0 11 5 11 10 0 6 -2 10 -4 10 -3 0
-8 -4 -11 -10z"/>
<path d="M2780 550 c0 -5 5 -10 11 -10 5 0 7 5 4 10 -3 6 -8 10 -11 10 -2 0
-4 -4 -4 -10z"/>
<path d="M2830 530 c0 -5 -6 -10 -14 -10 -7 0 -16 -10 -19 -21 -5 -19 -3 -19
24 7 32 30 34 34 19 34 -5 0 -10 -4 -10 -10z"/>
<path d="M2750 515 c-7 -9 -11 -18 -8 -20 3 -3 11 1 18 10 7 9 11 18 8 20 -3
3 -11 -1 -18 -10z"/>
<path d="M2750 439 c0 -5 5 -7 10 -4 6 3 10 8 10 11 0 2 -4 4 -10 4 -5 0 -10
-5 -10 -11z"/>
<path d="M2760 369 c0 -5 5 -7 10 -4 6 3 10 8 10 11 0 2 -4 4 -10 4 -5 0 -10
-5 -10 -11z"/>
<path d="M3066 435 c-11 -8 -15 -15 -9 -15 19 0 43 12 43 21 0 13 -12 11 -34
-6z"/>
<path d="M2465 490 c-3 -5 -1 -10 4 -10 6 0 11 5 11 10 0 6 -2 10 -4 10 -3 0
-8 -4 -11 -10z"/>
<path d="M2386 404 c-5 -14 -4 -15 9 -4 17 14 19 20 6 20 -5 0 -12 -7 -15 -16z"/>
<path d="M1785 260 c3 -5 8 -10 11 -10 2 0 4 5 4 10 0 6 -5 10 -11 10 -5 0 -7
-4 -4 -10z"/>
<path d="M1678 353 c7 -3 16 -2 19 1 4 3 -2 6 -13 5 -11 0 -14 -3 -6 -6z"/>
<path d="M1585 330 c-18 -8 -18 -9 5 -9 14 0 32 4 40 9 12 8 12 10 -5 9 -11 0
-29 -4 -40 -9z"/>
<path d="M1458 283 c7 -3 16 -2 19 1 4 3 -2 6 -13 5 -11 0 -14 -3 -6 -6z"/>
<path d="M1350 205 c35 -19 69 -35 75 -35 12 1 -116 69 -130 69 -5 0 19 -15
55 -34z"/>
<path d="M1525 210 c-3 -5 1 -10 9 -10 9 0 16 5 16 10 0 6 -4 10 -9 10 -6 0
-13 -4 -16 -10z"/>
<path d="M1476 191 c-14 -5 -16 -10 -8 -15 7 -4 19 0 28 8 17 17 11 19 -20 7z"/>
<path d="M4360 176 c0 -2 7 -7 16 -10 8 -3 12 -2 9 4 -6 10 -25 14 -25 6z"/>
<path d="M3568 163 c7 -3 16 -2 19 1 4 3 -2 6 -13 5 -11 0 -14 -3 -6 -6z"/>
<path d="M1621 148 c-20 -5 -30 -13 -25 -18 8 -8 90 13 103 26 8 7 -43 2 -78
-8z"/>
<path d="M4318 153 c7 -3 16 -2 19 1 4 3 -2 6 -13 5 -11 0 -14 -3 -6 -6z"/>
<path d="M1480 145 c0 -8 143 -76 148 -70 3 3 -12 12 -34 21 -21 9 -56 25 -76
35 -21 11 -38 17 -38 14z"/>
<path d="M3998 143 c6 -2 18 -2 25 0 6 3 1 5 -13 5 -14 0 -19 -2 -12 -5z"/>
<path d="M4368 143 c7 -3 16 -2 19 1 4 3 -2 6 -13 5 -11 0 -14 -3 -6 -6z"/>
<path d="M1735 130 c-3 -5 1 -10 10 -10 9 0 13 5 10 10 -3 6 -8 10 -10 10 -2
0 -7 -4 -10 -10z"/>
<path d="M4288 133 c7 -3 16 -2 19 1 4 3 -2 6 -13 5 -11 0 -14 -3 -6 -6z"/>
<path d="M1665 110 c-3 -5 3 -10 14 -10 12 0 21 5 21 10 0 6 -6 10 -14 10 -8
0 -18 -4 -21 -10z"/>
<path d="M4343 93 c9 -2 23 -2 30 0 6 3 -1 5 -18 5 -16 0 -22 -2 -12 -5z"/>
<path d="M4505 90 c-3 -5 -1 -10 4 -10 6 0 11 5 11 10 0 6 -2 10 -4 10 -3 0
-8 -4 -11 -10z"/>
<path d="M4463 63 c9 -2 23 -2 30 0 6 3 -1 5 -18 5 -16 0 -22 -2 -12 -5z"/>
<path d="M4498 33 c7 -3 16 -2 19 1 4 3 -2 6 -13 5 -11 0 -14 -3 -6 -6z"/>
</g>
</svg>
